<svg width="261" height="204" viewBox="0 0 261 204" fill="none" xmlns="http://www.w3.org/2000/svg">
<path d="M105.021 3.19049H31.021C21.08 3.19049 13.021 11.2495 13.021 21.1905V173.19C13.021 183.131 21.08 191.19 31.021 191.19H105.021C114.962 191.19 123.021 183.131 123.021 173.19V21.1905C123.021 11.2495 114.962 3.19049 105.021 3.19049Z" fill="#D3B894"/>
<path d="M105.021 3.19049H31.021C21.08 3.19049 13.021 11.2495 13.021 21.1905V173.19C13.021 183.131 21.08 191.19 31.021 191.19H105.021C114.962 191.19 123.021 183.131 123.021 173.19V21.1905C123.021 11.2495 114.962 3.19049 105.021 3.19049Z" fill="#B78B6E"/>
<path d="M24.021 173.19V21.1905C24.021 16.4165 25.917 11.8385 29.293 8.46249C32.669 5.08649 37.247 3.19049 42.021 3.19049H31.021C26.247 3.19049 21.669 5.08649 18.293 8.46249C14.917 11.8385 13.021 16.4165 13.021 21.1905V173.19C13.021 177.964 14.917 182.542 18.293 185.918C21.669 189.293 26.247 191.19 31.021 191.19H42.021C37.247 191.19 32.669 189.293 29.293 185.918C25.917 182.542 24.021 177.964 24.021 173.19Z" fill="#A3775F"/>
<path d="M105.021 3.19049H93.021C97.795 3.19049 102.373 5.08649 105.749 8.46249C109.125 11.8385 111.021 16.4165 111.021 21.1905V173.19C111.021 177.964 109.125 182.542 105.749 185.918C102.373 189.293 97.795 191.19 93.021 191.19H105.021C109.795 191.19 114.373 189.293 117.749 185.918C121.125 182.542 123.021 177.964 123.021 173.19V21.1905C123.021 16.4165 121.125 11.8385 117.749 8.46249C114.373 5.08649 109.795 3.19049 105.021 3.19049Z" fill="#A3775F"/>
<path d="M105.021 185.19H31.021C26.247 185.19 21.669 183.294 18.293 179.919C14.917 176.543 13.021 171.964 13.021 167.19V173.19C13.021 177.964 14.917 182.543 18.293 185.919C21.669 189.294 26.247 191.19 31.021 191.19H105.021C109.795 191.19 114.373 189.294 117.749 185.919C121.125 182.543 123.021 177.964 123.021 173.19V167.19C123.021 171.964 121.125 176.543 117.749 179.919C114.373 183.294 109.795 185.19 105.021 185.19Z" fill="#936C5C"/>
<path d="M105.021 3.19049H31.021C26.247 3.19049 21.669 5.08649 18.293 8.46249C14.917 11.8385 13.021 16.4165 13.021 21.1905V26.9955C13.021 22.2215 14.917 17.6435 18.293 14.2675C21.669 10.8915 26.247 8.99548 31.021 8.99548H105.021C109.795 8.99548 114.373 10.8915 117.749 14.2675C121.125 17.6435 123.021 22.2215 123.021 26.9955V21.1905C123.021 16.4165 121.125 11.8385 117.749 8.46249C114.373 5.08649 109.795 3.19049 105.021 3.19049Z" fill="#CEA895"/>
<path d="M105.021 3.19049H31.021C21.08 3.19049 13.021 11.2495 13.021 21.1905V173.19C13.021 183.131 21.08 191.19 31.021 191.19H105.021C114.962 191.19 123.021 183.131 123.021 173.19V21.1905C123.021 11.2495 114.962 3.19049 105.021 3.19049Z" stroke="#2B2F38" stroke-width="6" stroke-linecap="round" stroke-linejoin="round"/>
<path d="M32.0709 28.5855C35.4629 28.5855 38.2119 25.8365 38.2119 22.4445C38.2119 19.0535 35.4629 16.3035 32.0709 16.3035C28.6789 16.3035 25.9299 19.0535 25.9299 22.4445C25.9299 25.8365 28.6789 28.5855 32.0709 28.5855Z" fill="#2B2F38"/>
<path d="M103.97 28.5855C107.362 28.5855 110.111 25.8365 110.111 22.4445C110.111 19.0535 107.362 16.3035 103.97 16.3035C100.578 16.3035 97.829 19.0535 97.829 22.4445C97.829 25.8365 100.578 28.5855 103.97 28.5855Z" fill="#2B2F38"/>
<path d="M32.839 180.06C36.231 180.06 38.98 177.31 38.98 173.919C38.98 170.527 36.231 167.779 32.839 167.779C29.447 167.779 26.698 170.527 26.698 173.919C26.698 177.31 29.447 180.06 32.839 180.06Z" fill="#2B2F38"/>
<path d="M104.738 180.06C108.13 180.06 110.879 177.31 110.879 173.919C110.879 170.527 108.13 167.779 104.738 167.779C101.346 167.779 98.5969 170.527 98.5969 173.919C98.5969 177.31 101.346 180.06 104.738 180.06Z" fill="#2B2F38"/>
<path d="M68.788 87.5055C83.7 87.5055 95.788 75.4176 95.788 60.5056C95.788 45.5946 83.7 33.5056 68.788 33.5056C53.876 33.5056 41.788 45.5946 41.788 60.5056C41.788 75.4176 53.876 87.5055 68.788 87.5055Z" fill="#2B2F38"/>
<path opacity="0.28" d="M68.788 89.5055C84.804 89.5055 97.788 76.5226 97.788 60.5056C97.788 44.4896 84.804 31.5056 68.788 31.5056C52.772 31.5056 39.788 44.4896 39.788 60.5056C39.788 76.5226 52.772 89.5055 68.788 89.5055Z" stroke="black" stroke-miterlimit="10"/>
<path d="M68.788 80.5055C79.834 80.5055 88.788 71.5516 88.788 60.5056C88.788 49.4606 79.834 40.5056 68.788 40.5056C57.742 40.5056 48.788 49.4606 48.788 60.5056C48.788 71.5516 57.742 80.5055 68.788 80.5055Z" fill="#FAFBDB"/>
<path opacity="0.28" d="M68.021 164.177C86.246 164.177 101.021 149.403 101.021 131.177C101.021 112.952 86.246 98.1774 68.021 98.1774C49.796 98.1774 35.021 112.952 35.021 131.177C35.021 149.403 49.796 164.177 68.021 164.177Z" stroke="black" stroke-miterlimit="10"/>
<path d="M68.021 162.177C85.142 162.177 99.021 148.298 99.021 131.177C99.021 114.056 85.142 100.177 68.021 100.177C50.9 100.177 37.021 114.056 37.021 131.177C37.021 148.298 50.9 162.177 68.021 162.177Z" fill="#2B2F38"/>
<path d="M68.021 157.177C82.38 157.177 94.021 145.537 94.021 131.177C94.021 116.818 82.38 105.177 68.021 105.177C53.662 105.177 42.021 116.818 42.021 131.177C42.021 145.537 53.662 157.177 68.021 157.177Z" fill="#FAFBDB"/>
<path d="M68.021 143.177C74.648 143.177 80.021 137.805 80.021 131.177C80.021 124.55 74.648 119.177 68.021 119.177C61.394 119.177 56.021 124.55 56.021 131.177C56.021 137.805 61.394 143.177 68.021 143.177Z" fill="#2B2F38"/>
<path d="M68.788 68.5055C73.206 68.5055 76.788 64.9246 76.788 60.5056C76.788 56.0876 73.206 52.5056 68.788 52.5056C64.37 52.5056 60.788 56.0876 60.788 60.5056C60.788 64.9246 64.37 68.5055 68.788 68.5055Z" fill="#2B2F38"/>
<path d="M53.4359 192.443H31.8149V200.443H53.4359V192.443Z" fill="#2B2F38"/>
<path d="M105.762 192.443H84.141V200.443H105.762V192.443Z" fill="#2B2F38"/>
<path d="M227.076 3.19049H153.076C143.135 3.19049 135.076 11.2495 135.076 21.1905V173.19C135.076 183.131 143.135 191.19 153.076 191.19H227.076C237.017 191.19 245.076 183.131 245.076 173.19V21.1905C245.076 11.2495 237.017 3.19049 227.076 3.19049Z" fill="#D3B894"/>
<path d="M227.076 3.19049H153.076C143.135 3.19049 135.076 11.2495 135.076 21.1905V173.19C135.076 183.131 143.135 191.19 153.076 191.19H227.076C237.017 191.19 245.076 183.131 245.076 173.19V21.1905C245.076 11.2495 237.017 3.19049 227.076 3.19049Z" fill="#B78B6E"/>
<path d="M146.076 173.19V21.1905C146.076 16.4165 147.972 11.8385 151.348 8.46249C154.724 5.08649 159.302 3.19049 164.076 3.19049H153.076C148.302 3.19049 143.724 5.08649 140.348 8.46249C136.972 11.8385 135.076 16.4165 135.076 21.1905V173.19C135.076 177.964 136.972 182.542 140.348 185.918C143.724 189.293 148.302 191.19 153.076 191.19H164.076C159.302 191.19 154.724 189.293 151.348 185.918C147.972 182.542 146.076 177.964 146.076 173.19Z" fill="#A3775F"/>
<path d="M227.076 3.19049H215.076C219.85 3.19049 224.428 5.08649 227.804 8.46249C231.179 11.8385 233.076 16.4165 233.076 21.1905V173.19C233.076 177.964 231.179 182.542 227.804 185.918C224.428 189.293 219.85 191.19 215.076 191.19H227.076C231.85 191.19 236.428 189.293 239.804 185.918C243.179 182.542 245.076 177.964 245.076 173.19V21.1905C245.076 16.4165 243.179 11.8385 239.804 8.46249C236.428 5.08649 231.85 3.19049 227.076 3.19049Z" fill="#A3775F"/>
<path d="M227.076 185.19H153.076C148.302 185.19 143.724 183.294 140.348 179.919C136.972 176.543 135.076 171.964 135.076 167.19V173.19C135.076 177.964 136.972 182.543 140.348 185.919C143.724 189.294 148.302 191.19 153.076 191.19H227.076C231.85 191.19 236.428 189.294 239.804 185.919C243.179 182.543 245.076 177.964 245.076 173.19V167.19C245.076 171.964 243.179 176.543 239.804 179.919C236.428 183.294 231.85 185.19 227.076 185.19Z" fill="#936C5C"/>
<path d="M227.076 3.19049H153.076C148.302 3.19049 143.724 5.08649 140.348 8.46249C136.972 11.8385 135.076 16.4165 135.076 21.1905V26.9955C135.076 22.2215 136.972 17.6435 140.348 14.2675C143.724 10.8915 148.302 8.99548 153.076 8.99548H227.076C231.85 8.99548 236.428 10.8915 239.804 14.2675C243.179 17.6435 245.076 22.2215 245.076 26.9955V21.1905C245.076 16.4165 243.179 11.8385 239.804 8.46249C236.428 5.08649 231.85 3.19049 227.076 3.19049Z" fill="#CEA895"/>
<path d="M227.076 3.19049H153.076C143.135 3.19049 135.076 11.2495 135.076 21.1905V173.19C135.076 183.131 143.135 191.19 153.076 191.19H227.076C237.017 191.19 245.076 183.131 245.076 173.19V21.1905C245.076 11.2495 237.017 3.19049 227.076 3.19049Z" stroke="#2B2F38" stroke-width="6" stroke-linecap="round" stroke-linejoin="round"/>
<path d="M154.126 28.5855C157.518 28.5855 160.267 25.8365 160.267 22.4445C160.267 19.0535 157.518 16.3035 154.126 16.3035C150.734 16.3035 147.985 19.0535 147.985 22.4445C147.985 25.8365 150.734 28.5855 154.126 28.5855Z" fill="#2B2F38"/>
<path d="M226.025 28.5855C229.417 28.5855 232.166 25.8365 232.166 22.4445C232.166 19.0535 229.417 16.3035 226.025 16.3035C222.634 16.3035 219.884 19.0535 219.884 22.4445C219.884 25.8365 222.634 28.5855 226.025 28.5855Z" fill="#2B2F38"/>
<path d="M154.894 180.06C158.286 180.06 161.035 177.31 161.035 173.919C161.035 170.527 158.286 167.779 154.894 167.779C151.502 167.779 148.753 170.527 148.753 173.919C148.753 177.31 151.502 180.06 154.894 180.06Z" fill="#2B2F38"/>
<path d="M226.793 180.06C230.185 180.06 232.934 177.31 232.934 173.919C232.934 170.527 230.185 167.779 226.793 167.779C223.401 167.779 220.652 170.527 220.652 173.919C220.652 177.31 223.401 180.06 226.793 180.06Z" fill="#2B2F38"/>
<path d="M190.843 87.5055C205.755 87.5055 217.843 75.4176 217.843 60.5056C217.843 45.5946 205.755 33.5056 190.843 33.5056C175.931 33.5056 163.843 45.5946 163.843 60.5056C163.843 75.4176 175.931 87.5055 190.843 87.5055Z" fill="#2B2F38"/>
<path opacity="0.28" d="M190.843 89.5055C206.859 89.5055 219.843 76.5226 219.843 60.5056C219.843 44.4896 206.859 31.5056 190.843 31.5056C174.827 31.5056 161.843 44.4896 161.843 60.5056C161.843 76.5226 174.827 89.5055 190.843 89.5055Z" stroke="black" stroke-miterlimit="10"/>
<path d="M190.843 80.5055C201.889 80.5055 210.843 71.5516 210.843 60.5056C210.843 49.4606 201.889 40.5056 190.843 40.5056C179.797 40.5056 170.843 49.4606 170.843 60.5056C170.843 71.5516 179.797 80.5055 190.843 80.5055Z" fill="#FAFBDB"/>
<path opacity="0.28" d="M190.076 164.177C208.301 164.177 223.076 149.403 223.076 131.177C223.076 112.952 208.301 98.1774 190.076 98.1774C171.851 98.1774 157.076 112.952 157.076 131.177C157.076 149.403 171.851 164.177 190.076 164.177Z" stroke="black" stroke-miterlimit="10"/>
<path d="M190.076 162.177C207.197 162.177 221.076 148.298 221.076 131.177C221.076 114.056 207.197 100.177 190.076 100.177C172.955 100.177 159.076 114.056 159.076 131.177C159.076 148.298 172.955 162.177 190.076 162.177Z" fill="#2B2F38"/>
<path d="M190.076 157.177C204.435 157.177 216.076 145.537 216.076 131.177C216.076 116.818 204.435 105.177 190.076 105.177C175.717 105.177 164.076 116.818 164.076 131.177C164.076 145.537 175.717 157.177 190.076 157.177Z" fill="#FAFBDB"/>
<path d="M190.076 143.177C196.703 143.177 202.076 137.805 202.076 131.177C202.076 124.55 196.703 119.177 190.076 119.177C183.449 119.177 178.076 124.55 178.076 131.177C178.076 137.805 183.449 143.177 190.076 143.177Z" fill="#2B2F38"/>
<path d="M190.843 68.5055C195.261 68.5055 198.843 64.9246 198.843 60.5056C198.843 56.0876 195.261 52.5056 190.843 52.5056C186.425 52.5056 182.843 56.0876 182.843 60.5056C182.843 64.9246 186.425 68.5055 190.843 68.5055Z" fill="#2B2F38"/>
<path d="M175.491 192.443H153.87V200.443H175.491V192.443Z" fill="#2B2F38"/>
<path d="M227.816 192.443H206.195V200.443H227.816V192.443Z" fill="#2B2F38"/>
<path d="M210 200.81H258" stroke="#283035" stroke-width="6" stroke-linecap="round" stroke-linejoin="round"/>
<path d="M189.5 200.695H200.5" stroke="#283035" stroke-width="6" stroke-linecap="round" stroke-linejoin="round"/>
<path d="M3 200.695H177.663" stroke="#283035" stroke-width="6" stroke-linecap="round" stroke-linejoin="round"/>
</svg>
